<svg width="28" height="28" viewBox="0 0 28 28" fill="none" xmlns="http://www.w3.org/2000/svg">
<path d="M7.59051 21.181C11.7826 21.181 15.181 17.7826 15.181 13.5905C15.181 9.39839 11.7826 6 7.59051 6C3.39839 6 0 9.39839 0 13.5905C0 17.7826 3.39839 21.181 7.59051 21.181Z" fill="white"/>
<path d="M19.5206 20.6449C21.59 20.6449 23.2677 17.4872 23.2677 13.592C23.2677 9.69676 21.59 6.53906 19.5206 6.53906C17.4511 6.53906 15.7734 9.69676 15.7734 13.592C15.7734 17.4872 17.4511 20.6449 19.5206 20.6449Z" fill="white"/>
<path d="M25.39 19.8615C26.2785 19.8615 26.9988 17.0541 26.9988 13.5909C26.9988 10.1278 26.2785 7.32031 25.39 7.32031C24.5015 7.32031 23.7812 10.1278 23.7812 13.5909C23.7812 17.0541 24.5015 19.8615 25.39 19.8615Z" fill="white"/>
</svg>
