<svg width="28" height="28" viewBox="0 0 28 28" fill="none" xmlns="http://www.w3.org/2000/svg">
<path d="M21.618 8.42766H17.988C17.8242 8.42766 17.6914 8.29108 17.6914 8.1226V4.38924C17.6914 4.24462 17.8614 4.17216 17.9609 4.27443L21.7296 8.15051C21.8291 8.25279 21.7587 8.42766 21.618 8.42766Z" fill="white"/>
<path d="M17.6923 9.6962H21.6947C21.8633 9.6962 22 9.83677 22 10.0102V22.8987C22 23.507 21.5206 24 20.9292 24H7.07077C6.47938 24 6 23.507 6 22.8987V5.10127C6 4.49304 6.47938 4 7.07077 4H16.1562C16.3249 4 16.4615 4.14057 16.4615 4.31399V8.43038C16.4615 9.12658 17.0154 9.6962 17.6923 9.6962Z" fill="white"/>
</svg>
