<svg width="28" height="28" viewBox="0 0 28 28" fill="none" xmlns="http://www.w3.org/2000/svg">
<path fill-rule="evenodd" clip-rule="evenodd" d="M4.5119 12.7489C10.4155 10.2087 14.3522 8.53397 16.3219 7.72491C21.9458 5.41475 23.1144 5.01342 23.8761 5.00014C24.0436 4.99725 24.4182 5.03826 24.6608 5.23272C25.0207 5.52116 25.0228 6.14725 24.9828 6.56162C24.6781 9.72412 23.3594 17.3986 22.6885 20.9406C22.4045 22.4394 21.8456 22.9419 21.3045 22.9911C20.1285 23.098 19.2355 22.2235 18.0964 21.4862C16.3141 20.3323 15.3072 19.614 13.577 18.488C11.5776 17.1868 12.8738 16.4716 14.0132 15.3028C14.3115 14.9969 19.493 10.3423 19.5933 9.92006C19.6059 9.86725 19.6175 9.67037 19.4991 9.56647C19.3806 9.46256 19.2059 9.49803 19.0798 9.52631C18.901 9.56639 16.0537 11.4251 10.5378 15.1023C9.72957 15.6504 8.99752 15.9174 8.34166 15.9034C7.61855 15.888 6.22771 15.4997 5.19372 15.1677C3.92549 14.7606 2.91752 14.5453 3.00533 13.8539C3.05106 13.4937 3.55322 13.1254 4.5119 12.7489V12.7489Z" fill="white"/>
</svg>
