<svg width="141" height="32" viewBox="0 0 141 32" fill="none" xmlns="http://www.w3.org/2000/svg">
<path d="M7.47885 4.01562H0V26.331H7.47885V4.01562Z" fill="white"/>
<path d="M8.69531 17.3122L15.1699 26.3144H23.9589L13.7628 12.0859L8.69531 17.3122Z" fill="white"/>
<path d="M19.7326 11.5086C20.2155 11.2502 20.6431 10.898 20.9907 10.4721C21.3384 10.0463 21.5993 9.55516 21.7583 9.02708C21.9174 8.499 21.9716 7.94436 21.9177 7.39506C21.8638 6.84576 21.7029 6.31264 21.4443 5.82638C20.9172 4.84349 20.0267 4.11107 18.9671 3.78895C17.9074 3.46683 16.7647 3.58116 15.7881 4.10699C15.305 4.36508 14.8772 4.71719 14.5294 5.14303C14.1815 5.56887 13.9206 6.06002 13.7615 6.58819C13.6024 7.11636 13.5483 7.6711 13.6024 8.22048C13.6564 8.76985 13.8176 9.303 14.0765 9.78919C14.6035 10.7721 15.4941 11.5045 16.5537 11.8266C17.6133 12.1487 18.7561 12.0344 19.7326 11.5086Z" fill="#61CFE2"/>
<path d="M32.4372 3.71875H25.4121V26.0292H32.4372V3.71875Z" fill="white"/>
<path d="M45.1901 18.718C45.0539 19.0703 44.8592 19.3982 44.614 19.6882C44.4005 19.9345 44.1364 20.1339 43.8391 20.2733C43.5591 20.4084 43.2513 20.4786 42.9393 20.4786C42.6273 20.4786 42.3194 20.4084 42.0395 20.2733C41.7413 20.1352 41.477 19.9356 41.2645 19.6882C41.0254 19.403 40.8375 19.08 40.7089 18.733C40.5688 18.3325 40.5015 17.911 40.51 17.4877C40.5003 17.0573 40.5693 16.6288 40.7139 16.2224C40.827 15.8796 41.0129 15.5642 41.2594 15.2971C41.4708 15.0549 41.7359 14.8633 42.0344 14.737C42.3211 14.6095 42.6321 14.543 42.9469 14.5419C43.2604 14.5397 43.5705 14.6063 43.8544 14.737C44.1501 14.8657 44.4143 15.055 44.6293 15.2921C44.8718 15.5702 45.0617 15.8887 45.1901 16.2324C45.3382 16.6346 45.4108 17.06 45.4042 17.4877C45.4034 17.9066 45.3311 18.3225 45.1901 18.718ZM52.3273 26.4498V9.13063H45.4144V9.52574C44.3951 8.89783 43.2123 8.573 42.0089 8.59052C40.8964 8.58327 39.7926 8.78354 38.7563 9.18066C37.7403 9.56399 36.8205 10.1576 36.0594 10.9211C35.2714 11.7266 34.659 12.6812 34.2598 13.7267C33.8045 14.9293 33.5831 16.205 33.6072 17.4877C33.5836 18.767 33.8049 20.0394 34.2598 21.2386C34.657 22.288 35.2695 23.2463 36.0594 24.0543C36.8213 24.8217 37.7381 25.4247 38.7512 25.8247C39.788 26.227 40.8939 26.4307 42.0089 26.4248C42.9749 26.4512 43.9342 26.2595 44.8128 25.8647C45.0262 25.7658 45.2294 25.6468 45.4195 25.5096V26.4498H52.3273Z" fill="white"/>
<path d="M67.5097 9.17454L64.1399 17.3465L61.1117 9.17454H53.6328L60.2603 25.4135C60.2037 25.4381 60.1459 25.4598 60.0869 25.4785C59.7518 25.5491 59.4101 25.586 59.0673 25.5885C58.6442 25.5885 58.1956 25.5885 57.7316 25.5885H57.0077V31.795H59.1234C61.115 31.8761 63.0735 31.2769 64.665 30.0996C66.1335 28.9057 67.2553 27.3532 67.9176 25.5985L74.9682 9.14453L67.5097 9.17454Z" fill="white"/>
<path d="M93.9877 11.6748H88.0638V3.63281H81.0488V26.1383H88.0638V17.3361H93.9877V26.1383H101.008V3.63281H93.9877V11.6748Z" fill="white"/>
<path d="M120.788 9.17578V26.1799H113.876V25.5447C113.541 25.7181 113.192 25.8604 112.83 25.9699C111.99 26.2382 111.118 26.3963 110.235 26.44H109.94C109.003 26.448 108.073 26.2782 107.202 25.9399C106.28 25.5795 105.45 25.0246 104.77 24.3145C104.071 23.5662 103.536 22.6843 103.2 21.7238C102.815 20.6303 102.626 19.4798 102.639 18.323V9.17578H109.557V17.9379C109.546 18.3214 109.61 18.7034 109.746 19.0632C109.85 19.3375 110.007 19.589 110.21 19.8034C110.388 19.9766 110.604 20.1067 110.842 20.1835C111.1 20.2639 111.373 20.2912 111.643 20.2635C112.25 20.2402 112.826 19.9876 113.248 19.5583C113.662 19.0272 113.882 18.376 113.876 17.7079V9.17578H120.788Z" fill="white"/>
<path d="M140.384 13.7463C139.983 12.7005 139.369 11.7458 138.58 10.9406C137.814 10.1788 136.894 9.58402 135.878 9.19518C134.844 8.8032 133.744 8.60309 132.635 8.60504C131.769 8.60016 130.908 8.73533 130.086 9.00513C129.781 9.11592 129.484 9.24971 129.199 9.40526V2.55859H122.281V26.1793H128.496V25.2391C128.98 25.5895 129.517 25.8645 130.086 26.0543C130.896 26.3143 131.743 26.4443 132.595 26.4394C133.707 26.4439 134.809 26.2385 135.842 25.8342C136.86 25.4382 137.781 24.8348 138.544 24.0638C139.327 23.2538 139.938 22.2981 140.339 21.2531C140.797 20.0513 141.02 18.7753 140.996 17.4922C141.028 16.2173 140.821 14.9476 140.384 13.7463ZM133.9 18.7475C133.773 19.1112 133.581 19.4498 133.334 19.7478C133.121 19.9924 132.859 20.1916 132.564 20.3329C132.291 20.4645 131.991 20.5313 131.687 20.5279C131.367 20.5336 131.049 20.4668 130.759 20.3329C130.462 20.193 130.198 19.9937 129.984 19.7478C129.744 19.4604 129.555 19.1359 129.424 18.7875C129.285 18.3866 129.218 17.9654 129.225 17.5422V17.4122C129.229 16.9991 129.305 16.5898 129.449 16.2019C129.575 15.88 129.76 15.5835 129.995 15.3267C130.204 15.0917 130.466 14.907 130.759 14.7865C131.053 14.6651 131.369 14.6038 131.687 14.6065C131.995 14.6046 132.299 14.6677 132.579 14.7915C132.868 14.9291 133.126 15.1212 133.339 15.3567C133.587 15.6291 133.777 15.947 133.9 16.2919C134.056 16.6905 134.133 17.1151 134.124 17.5422C134.128 17.9511 134.052 18.3569 133.9 18.7375V18.7475Z" fill="white"/>
</svg>
